<svg xmlns="http://www.w3.org/2000/svg" viewBox="0 0 178.64 102.41250000000001" x="0px" y="0px"><title>Asset 9</title><g><g><polygon points="20.27 52.32 22.41 56.24 24.21 52.16 28.59 51.34 25.28 48.36 25.85 43.94 21.99 46.17 17.96 44.26 18.89 48.62 15.83 51.86 20.27 52.32"/><polygon points="95.41 12.29 99.28 10.07 103.3 11.99 102.38 7.63 105.45 4.39 101.01 3.92 98.89 0 97.07 4.07 92.69 4.88 96 7.87 95.41 12.29"/><polygon points="144.04 44.29 140.55 41.52 140.47 45.98 136.76 48.44 140.97 49.89 142.17 54.19 144.85 50.62 149.31 50.81 146.75 47.16 148.3 42.98 144.04 44.29"/><polygon points="100.08 54.95 97.96 51.03 96.14 55.1 91.75 55.91 95.06 58.9 94.48 63.32 98.34 61.09 102.37 63.02 101.45 58.65 104.52 55.42 100.08 54.95"/><polygon points="178.64 32.06 174.21 31.59 172.08 27.67 170.26 31.74 165.88 32.55 169.19 35.54 168.6 39.96 172.47 37.74 176.49 39.66 175.57 35.3 178.64 32.06"/><polygon points="9.69 20.97 12.76 17.73 8.33 17.26 6.21 13.34 4.38 17.41 0 18.22 3.31 21.21 2.72 25.63 6.59 23.41 10.61 25.33 9.69 20.97"/><polygon points="154.38 73.56 152.26 69.64 150.44 73.71 146.05 74.52 149.36 77.51 148.78 81.93 152.64 79.7 156.66 81.63 155.74 77.27 158.82 74.03 154.38 73.56"/><path d="M90.29,22.15c-30.73,0-54.8,8.51-54.8,19.37s24.07,19.36,54.8,19.36a.78.78,0,1,0,0-1.55C61.43,59.33,37,51.17,37,41.52S61.43,23.71,90.29,23.71s53.26,8.15,53.26,17.81a.78.78,0,0,0,1.55,0C145.1,30.66,121,22.15,90.29,22.15Z"/><path d="M21.07,41.52a1,1,0,0,0,2.08,0c0-13.63,30.12-24.71,67.14-24.71s67.15,11.08,67.15,24.71S127.32,66.23,90.29,66.23a1,1,0,0,0,0,2.07c38.82,0,69.22-11.76,69.22-26.78s-30.4-26.79-69.22-26.79S21.07,26.5,21.07,41.52Z"/><path d="M172.26,41a.52.52,0,0,0-.52.52C171.74,58.9,135.2,73,90.29,73S8.85,58.9,8.85,41.52,45.38,10,90.29,10a.52.52,0,1,0,0-1C44.81,9,7.81,23.56,7.81,41.52s37,32.56,82.48,32.56,82.49-14.61,82.49-32.56A.52.52,0,0,0,172.26,41Z"/></g></g></svg>