<svg width="12" height="18" viewBox="0 0 12 18" fill="none" xmlns="http://www.w3.org/2000/svg">
    <path d="M12 5.82353C12 2.60471 9.31636 0 6 0C2.68364 0 0 2.60471 0 5.82353C0 8.68235 2.11636 11.0435 4.90909 11.5412V13.7647H2.72727V15.8824H4.90909V18H7.09091V15.8824H9.27273V13.7647H7.09091V11.5412C9.88364 11.0435 12 8.68235 12 5.82353ZM2.18182 5.82353C2.18182 3.78 3.89455 2.11765 6 2.11765C8.10545 2.11765 9.81818 3.78 9.81818 5.82353C9.81818 7.86706 8.10545 9.52941 6 9.52941C3.89455 9.52941 2.18182 7.86706 2.18182 5.82353Z" fill="#9C3541"/>
</svg>
