<svg xmlns="http://www.w3.org/2000/svg" viewBox="0 0 64 80" x="0px" y="0px"><g><path d="M60,29a7.0078,7.0078,0,0,1-7,7H15a11,11,0,0,1,0-22c.2373,0,.481.01.7349.03a14.9795,14.9795,0,0,1,27.4609,2.1543A8.8678,8.8678,0,0,1,45,16a8.9826,8.9826,0,0,1,8.4844,6.0166A7.0093,7.0093,0,0,1,60,29ZM22.5972,46.5a1,1,0,0,0,.5009-1.8662L22,44l1.0977-.6338a1,1,0,1,0-1-1.7324L21,42.2678V41a1,1,0,0,0-2,0v1.2678l-1.0981-.634a1,1,0,1,0-1,1.7324L18,44l-1.0977.6338a1,1,0,0,0,1,1.7324L19,45.7322V47a1,1,0,0,0,2,0V45.7322l1.0981.634A.9976.9976,0,0,0,22.5972,46.5Zm12,0a1,1,0,0,0,.5009-1.8662L34,44l1.0977-.6338a1,1,0,1,0-1-1.7324L33,42.2678V41a1,1,0,0,0-2,0v1.2678l-1.0981-.634a1,1,0,1,0-1,1.7324L30,44l-1.0977.6338a1,1,0,0,0,1,1.7324L31,45.7322V47a1,1,0,0,0,2,0V45.7322l1.0981.634A.9976.9976,0,0,0,34.5972,46.5ZM29.4644,52a.9987.9987,0,0,0-1.3663-.3662L27,52.2678V51a1,1,0,0,0-2,0v1.2678l-1.0981-.634a1,1,0,1,0-1,1.7324L24,54l-1.0977.6338a1,1,0,0,0,1,1.7324L25,55.7322V57a1,1,0,0,0,2,0V55.7322l1.0981.634a1,1,0,1,0,1-1.7324L28,54l1.0977-.6338A1,1,0,0,0,29.4644,52Zm12,0a.9988.9988,0,0,0-1.3663-.3662L39,52.2678V51a1,1,0,0,0-2,0v1.2678l-1.0981-.634a1,1,0,1,0-1,1.7324L36,54l-1.0977.6338a1,1,0,0,0,1,1.7324L37,55.7322V57a1,1,0,0,0,2,0V55.7322l1.0981.634a1,1,0,1,0,1-1.7324L40,54l1.0977-.6338A1,1,0,0,0,41.4644,52Zm6-10a.9987.9987,0,0,0-1.3663-.3662L45,42.2678V41a1,1,0,0,0-2,0v1.2678l-1.0981-.634a1,1,0,1,0-1,1.7324L42,44l-1.0977.6338a1,1,0,0,0,1,1.7324L43,45.7322V47a1,1,0,0,0,2,0V45.7322l1.0981.634a1,1,0,1,0,1-1.7324L46,44l1.0977-.6338A1,1,0,0,0,47.4644,42Z"/></g></svg>