<svg xmlns="http://www.w3.org/2000/svg" viewBox="0 0 64 80" x="0px" y="0px"><g><path d="M53.4844,22.0166A8.9826,8.9826,0,0,0,45,16a8.8678,8.8678,0,0,0-1.8042.1841A14.9795,14.9795,0,0,0,15.7349,14.03C15.481,14.01,15.2373,14,15,14a11,11,0,0,0,0,22H53a7,7,0,0,0,.4844-13.9834ZM53,34H15a9,9,0,0,1,0-18,8.5732,8.5732,0,0,1,1.1816.09.9993.9993,0,0,0,1.0445-.5674,12.9819,12.9819,0,0,1,24.3276,2.1353,1,1,0,0,0,1.2822.69A6.8359,6.8359,0,0,1,45,18a6.9828,6.9828,0,0,1,6.7715,5.2568,1,1,0,0,0,.9687.753c.065,0,.126-.003.26-.01a5,5,0,0,1,0,10ZM22.0981,46.3662,21,45.7322V47a1,1,0,0,1-2,0V45.7322l-1.0981.634a1,1,0,1,1-1-1.7324L18,44l-1.0977-.6338a1,1,0,1,1,1-1.7324L19,42.2678V41a1,1,0,0,1,2,0v1.2678l1.0981-.634a1,1,0,1,1,1,1.7324L22,44l1.0977.6338a1,1,0,0,1-1,1.7324Zm12,0L33,45.7322V47a1,1,0,0,1-2,0V45.7322l-1.0981.634a1,1,0,1,1-1-1.7324L30,44l-1.0977-.6338a1,1,0,1,1,1-1.7324L31,42.2678V41a1,1,0,0,1,2,0v1.2678l1.0981-.634a1,1,0,1,1,1,1.7324L34,44l1.0977.6338a1,1,0,0,1-1,1.7324Zm-5,7L28,54l1.0977.6338a1,1,0,0,1-1,1.7324L27,55.7322V57a1,1,0,0,1-2,0V55.7322l-1.0981.634a1,1,0,1,1-1-1.7324L24,54l-1.0977-.6338a1,1,0,1,1,1-1.7324L25,52.2678V51a1,1,0,0,1,2,0v1.2678l1.0981-.634a1,1,0,1,1,1,1.7324Zm12,0L40,54l1.0977.6338a1,1,0,0,1-1,1.7324L39,55.7322V57a1,1,0,0,1-2,0V55.7322l-1.0981.634a1,1,0,1,1-1-1.7324L36,54l-1.0977-.6338a1,1,0,1,1,1-1.7324L37,52.2678V51a1,1,0,0,1,2,0v1.2678l1.0981-.634a1,1,0,1,1,1,1.7324Zm6-10L46,44l1.0977.6338a1,1,0,0,1-1,1.7324L45,45.7322V47a1,1,0,0,1-2,0V45.7322l-1.0981.634a1,1,0,1,1-1-1.7324L42,44l-1.0977-.6338a1,1,0,1,1,1-1.7324L43,42.2678V41a1,1,0,0,1,2,0v1.2678l1.0981-.634a1,1,0,1,1,1,1.7324Z"/></g></svg>