<svg width="16" height="16" viewBox="0 0 16 16" fill="none" xmlns="http://www.w3.org/2000/svg">
    <path d="M15.5 0.5V6.125H13.625V3.71094L9.89844 7.41406C10.1953 7.85156 10.4219 8.31656 10.5781 8.80906C10.7344 9.30156 10.8125 9.81312 10.8125 10.3438C10.8125 11.7812 10.3125 13 9.3125 14C8.3125 15 7.09375 15.5 5.65625 15.5C4.21875 15.5 3 15 2 14C1 13 0.5 11.7812 0.5 10.3438C0.5 8.90625 1 7.6875 2 6.6875C3 5.6875 4.21875 5.1875 5.65625 5.1875C6.17188 5.1875 6.67969 5.26156 7.17969 5.40969C7.67969 5.55781 8.14063 5.78844 8.5625 6.10156L12.2891 2.375H9.875V0.5H15.5ZM5.65625 7.0625C4.75 7.0625 3.97656 7.38281 3.33594 8.02344C2.69531 8.66406 2.375 9.4375 2.375 10.3438C2.375 11.25 2.69531 12.0234 3.33594 12.6641C3.97656 13.3047 4.75 13.625 5.65625 13.625C6.5625 13.625 7.33594 13.3047 7.97656 12.6641C8.61719 12.0234 8.9375 11.25 8.9375 10.3438C8.9375 9.4375 8.61719 8.66406 7.97656 8.02344C7.33594 7.38281 6.5625 7.0625 5.65625 7.0625Z" fill="white"/>
</svg>
