<svg xmlns="http://www.w3.org/2000/svg" data-name="Layer 1" viewBox="0 0 64 80" x="0px" y="0px"><title>sandstorm</title><path d="M60.85,49.7a1,1,0,0,0-1.38-.29c-2.71,1.79-6.32,1.44-8.87.83-1.31-.31-2.63-.73-3.91-1.14a38.93,38.93,0,0,0-5.78-1.53,20.47,20.47,0,0,0-14.16,3,1.37,1.37,0,0,0-.17.17C25,50.39,23.5,49.94,22,49.49l-.54-.16h3l.11,0c3.59-.13,7.16-1,8.07-2.83,3.76-.47,7.53-1.73,7.88-4,4.2-1,6.59-2.63,6.59-4.64a2.58,2.58,0,0,0-.12-.72c3.2-1.14,5-2.73,5-4.55A3.28,3.28,0,0,0,51,30.37c2.85-1.46,3.5-3.07,3.5-4.22S54,23.68,51.7,22.32c2-1.4,2.51-2.83,2.51-3.86,0-5.19-11.32-8-22-8s-22,2.8-22,8c0,2.21,2.15,4.18,6.1,5.63a3.48,3.48,0,0,0-.73,2.06c0,1.16.65,2.76,3.47,4.21a3.27,3.27,0,0,0-.94,2.2,3.61,3.61,0,0,0,1.62,2.82,3.15,3.15,0,0,0-1.36,2.45,2.73,2.73,0,0,0,.56,1.6c-1.62.91-2,1.93-2,2.69a1.41,1.41,0,0,0,0,.2c-2.11.81-2.6,1.88-2.6,2.7a1,1,0,1,0,2,0c0-.11.39-.52,1.58-.94l.06.06C19.8,45.7,24,46.7,28.66,46.71a18.51,18.51,0,0,1-5.05.62h-14a1,1,0,0,0-.73.34,12.79,12.79,0,0,0-5.48,2,1,1,0,0,0-.26,1.39,1,1,0,0,0,1.39.26C8,49,12.51,49.28,15.7,49.9c1.92.38,3.86,1,5.73,1.51A63,63,0,0,0,27.65,53,31.5,31.5,0,0,0,39.26,53a1,1,0,1,0-.38-2,29.43,29.43,0,0,1-9.32.29,18.32,18.32,0,0,1,11-1.74A38,38,0,0,1,46.08,51c1.31.43,2.67.86,4.06,1.19a19,19,0,0,0,4.33.54,10.88,10.88,0,0,0,6.1-1.65A1,1,0,0,0,60.85,49.7ZM19.66,42.59a1,1,0,0,0-.61-.67,3.55,3.55,0,0,1,1.56-1.07c2.53,1.5,7.09,2.42,12.15,2.42a38.08,38.08,0,0,0,5-.32,14.83,14.83,0,0,1-6,1.61,28.57,28.57,0,0,1-3,.15c-4.46,0-7.7-.91-9.08-1.84A.89.89,0,0,0,19.66,42.59Zm19.59-1.9a35,35,0,0,1-6.49.58c-4.92,0-9.42-.93-11.46-2.36-.56-.39-.86-.77-.86-1.08s.33-.79,1.24-1.32c3.1,1.46,8,2.34,13.37,2.34A40.82,40.82,0,0,0,45,37.7a.33.33,0,0,1,0,.13C45.08,38.5,43.5,39.86,39.25,40.69Zm6-5.11a37.49,37.49,0,0,1-10.18,1.27c-5.24,0-10.2-.9-12.94-2.35-1.23-.64-1.93-1.35-1.93-1.94,0-.42.35-.88,1-1.34a42.64,42.64,0,0,0,13.92,2.07A42.67,42.67,0,0,0,49,31.22c.45.34.94.83.94,1.34C49.92,33.38,48.47,34.63,45.23,35.58ZM12.28,18.46c0-2.83,8.54-6,20-6s20,3.16,20,6c0,1-1.11,2.08-3.05,3h0c-3.79,1.86-10.11,3-16.92,3A49.17,49.17,0,0,1,18.53,22.7h0C14.67,21.55,12.28,19.92,12.28,18.46Zm5.37,7.69a2,2,0,0,1,.81-1.39,52.22,52.22,0,0,0,13.78,1.69c6.85,0,13.29-1.11,17.37-3,1.84.85,2.88,1.81,2.88,2.67s-1.39,2.11-3.73,3a39.57,39.57,0,0,1-13.69,2.11,39.42,39.42,0,0,1-13.72-2.12C19,28.26,17.65,27.13,17.65,26.15Z"/><path d="M44.89,43.4a2.5,2.5,0,1,0,2.5-2.5A2.5,2.5,0,0,0,44.89,43.4Zm3,0a.5.5,0,1,1-.5-.5A.5.5,0,0,1,47.89,43.4Z"/><path d="M12.39,26.9a2.5,2.5,0,1,0,2.5,2.5A2.5,2.5,0,0,0,12.39,26.9Zm0,3a.5.5,0,1,1,.5-.5A.5.5,0,0,1,12.39,29.9Z"/><circle cx="6.89" cy="37.9" r="1"/><circle cx="10.89" cy="37.9" r="1"/><circle cx="14.89" cy="37.9" r="1"/><circle cx="54.89" cy="36.9" r="1"/><circle cx="50.89" cy="36.9" r="1"/></svg>